# xmcd
#
# Track frame offsets: 
#        150
#        5549
#        10952
#        16345
#        21737
#        27133
#        32534
#        37921
#        43309
#        48703
#        54098
#        59480
#        64867
#        68580
#        72275
#        75971
#        99945
#        104358
#        108743
#        113135
#        117526
#        121936
#        126336
#        130761
#        135163
#        139577
#        143983
#        148380
#        152773
#        155837
#        158874
#        161926
#        185867
#        189163
#        192457
#        195756
#        199042
#        202331
#        205630
#        208922
#        212221
#        215513
#        218808
#        222096
#        225384
#        227750
#        230128
#        232321
#        256431
#        259719
#        265098
#
# Disc length: 3639 seconds
#
# Revision: 2
# Processed by: cddbd v1.5.2PL0 Copyright (c) Steve Scherf et al.
# Submitted via: ExactAudioCopy v1.0b3
#
DISCID=050e3533
DTITLE=Daniel Schusterbauer - Guitar Training Blues
DYEAR=2012
DGENRE=
TTITLE0=Track 01 - Slow Blues, Station 1, leicht
TTITLE1=Track 02 - Slow Blues, Station 1, mittel
TTITLE2=Track 03 - Slow Blues, Station 1, schwer
TTITLE3=Track 04 - Slow Blues, Station 2, leicht
TTITLE4=Track 05 - Slow Blues, Station 2, mittel
TTITLE5=Track 06 - Slow Blues, Station 2, schwer
TTITLE6=Track 07 - Slow Blues, Station 3, leicht
TTITLE7=Track 08 - Slow Blues, Station 3, mittel
TTITLE8=Track 09 - Slow Blues, Station 3, schwer
TTITLE9=Track 10 - Slow Blues, Station 4, leicht
TTITLE10=Track 11 - Slow Blues, Station 4, mittel
TTITLE11=Track 12 - Slow Blues, Station 4, schwer
TTITLE12=Track 13 - Slow Blues Song, leicht
TTITLE13=Track 14 - Slow Blues Song, mittel
TTITLE14=Track 15 - Slow Blues Song, schwer
TTITLE15=Track 16 - Slow Blues Song, Playalong
TTITLE16=Track 17 - Medium Blues, Station 1, leicht
TTITLE17=Track 18 - Medium Blues, Station 1, mittel
TTITLE18=Track 19 - Medium Blues, Station 1, schwer
TTITLE19=Track 20 - Medium Blues, Station 2, leicht
TTITLE20=Track 21 - Medium Blues, Station 2, mittel
TTITLE21=Track 22 - Medium Blues, Station 2, schwer
TTITLE22=Track 23 - Medium Blues, Station 3, leicht
TTITLE23=Track 24 - Medium Blues, Station 3, mittel
TTITLE24=Track 25 - Medium Blues, Station 3, schwer
TTITLE25=Track 26 - Medium Blues, Station 4, leicht
TTITLE26=Track 27 - Medium Blues, Station 4, mittel
TTITLE27=Track 28 - Medium Blues, Station 4, schwer
TTITLE28=Track 29 - Medium Blues Song, leicht
TTITLE29=Track 30 - Medium Blues Song, mittel
TTITLE30=Track 31 - Medium Blues Song, schwer
TTITLE31=Track 32 - Medium Blues Song, Playalong
TTITLE32=Track 33 - Fast Blues, Station 1, leicht
TTITLE33=Track 34 - Fast Blues, Station 1, mittel
TTITLE34=Track 35 - Fast Blues, Station 1, schwer
TTITLE35=Track 36 - Fast Blues, Station 2, leicht
TTITLE36=Track 37 - Fast Blues, Station 2, mittel
TTITLE37=Track 38 - Fast Blues ,Station 2, schwer
TTITLE38=Track 39 - Fast Blues, Station 3, leicht
TTITLE39=Track 40 - Fast Blues, Station 3, mittel
TTITLE40=Track 41 - Fast Blues, Station 3, schwer
TTITLE41=Track 42 - Fast Blues, Station 4, leicht
TTITLE42=Track 43 - Fast Blues, Station 4, mittel
TTITLE43=Track 44 - Fast Blues, Station 4, schwer
TTITLE44=Track 45 - Fast Blues Song, leicht
TTITLE45=Track 46 - Fast Blues Song, mittel
TTITLE46=Track 47 - Fast Blues Song, schwer
TTITLE47=Track 48 - Fast Blues Song, Playalong
TTITLE48=Track 49 - Intros and Endings, leicht
TTITLE49=Track 50 - Intros and Endings, mittel
TTITLE50=Track 51 - Intros and Endings, schwer
EXTD=ISBN-10: 3866262493\nISBN-13: 978-3866262492
EXTT0=
EXTT1=
EXTT2=
EXTT3=
EXTT4=
EXTT5=
EXTT6=
EXTT7=
EXTT8=
EXTT9=
EXTT10=
EXTT11=
EXTT12=
EXTT13=
EXTT14=
EXTT15=
EXTT16=
EXTT17=
EXTT18=
EXTT19=
EXTT20=
EXTT21=
EXTT22=
EXTT23=
EXTT24=
EXTT25=
EXTT26=
EXTT27=
EXTT28=
EXTT29=
EXTT30=
EXTT31=
EXTT32=
EXTT33=
EXTT34=
EXTT35=
EXTT36=
EXTT37=
EXTT38=
EXTT39=
EXTT40=
EXTT41=
EXTT42=
EXTT43=
EXTT44=
EXTT45=
EXTT46=
EXTT47=
EXTT48=
EXTT49=
EXTT50=
PLAYORDER=
